<svg width="492" height="196" viewBox="0 0 492 196" fill="none" xmlns="http://www.w3.org/2000/svg">
<path d="M134.38 69.6992L134.38 69.6993L134.391 69.7063C135.323 70.2895 136.075 71.0376 136.595 71.8879C137.113 72.7361 137.389 73.6655 137.408 74.6059L137.408 137.989L137.408 137.993C137.42 139.37 136.88 140.725 135.851 141.839C134.821 142.956 133.359 143.765 131.69 144.121L131.69 144.121L83.1287 154.52V78.0984L127.738 68.5231C127.738 68.5231 127.738 68.5231 127.738 68.523C128.881 68.2778 130.078 68.2569 131.233 68.4622C132.388 68.6674 133.465 69.0924 134.38 69.6992ZM14.9723 74.7095H14.9723L14.9722 74.7022C14.9583 73.7517 15.2072 72.8071 15.7056 71.9405C16.2043 71.0736 16.9409 70.3058 17.8654 69.7023C18.7744 69.1201 19.8317 68.71 20.9622 68.5053C22.0917 68.3007 23.262 68.3072 24.3879 68.5242L69.1217 78.0987V154.519L20.691 144.067L20.69 144.067C19.0321 143.713 17.5777 142.911 16.5478 141.805C15.5197 140.701 14.9736 139.357 14.9723 137.989V74.7095Z" fill="#582073" stroke="#B172C7"/>
<rect width="70.1233" height="30.3322" rx="15" transform="matrix(0.964664 0.263482 -0.316143 0.948712 9.58887 148.746)" fill="#582073"/>
<rect width="70.1232" height="30.3322" rx="15" transform="matrix(0.964656 -0.263512 0.316178 0.9487 75.7646 167.224)" fill="#582073"/>
<ellipse cx="76.6156" cy="34.6818" rx="38.308" ry="34.6818" fill="#582073"/>
<path d="M215.08 132.448C214.269 132.448 213.608 132.256 213.096 131.872C212.584 131.488 212.179 130.912 211.88 130.144L194.28 89.888C193.981 89.1627 193.896 88.5653 194.024 88.096C194.152 87.584 194.429 87.1787 194.856 86.88C195.325 86.5813 195.859 86.432 196.456 86.432C197.267 86.432 197.864 86.624 198.248 87.008C198.675 87.3493 199.016 87.8613 199.272 88.544L216.168 127.776H214.12L230.952 88.48C231.251 87.84 231.613 87.3493 232.04 87.008C232.467 86.624 233.064 86.432 233.832 86.432C234.429 86.432 234.92 86.5813 235.304 86.88C235.731 87.1787 235.987 87.584 236.072 88.096C236.2 88.608 236.115 89.2053 235.816 89.888L218.216 130.144C217.917 130.912 217.512 131.488 217 131.872C216.531 132.256 215.891 132.448 215.08 132.448ZM246.049 132.32C245.196 132.32 244.556 132.085 244.129 131.616C243.702 131.104 243.489 130.4 243.489 129.504V103.328C243.489 102.432 243.702 101.749 244.129 101.28C244.556 100.811 245.196 100.576 246.049 100.576C246.86 100.576 247.5 100.811 247.969 101.28C248.438 101.749 248.673 102.432 248.673 103.328V129.504C248.673 130.4 248.438 131.104 247.969 131.616C247.542 132.085 246.902 132.32 246.049 132.32ZM246.049 93.408C244.982 93.408 244.15 93.1307 243.553 92.576C242.956 91.9787 242.657 91.1893 242.657 90.208C242.657 89.184 242.956 88.416 243.553 87.904C244.15 87.3493 244.982 87.072 246.049 87.072C247.158 87.072 247.99 87.3493 248.545 87.904C249.142 88.416 249.441 89.184 249.441 90.208C249.441 91.1893 249.142 91.9787 248.545 92.576C247.99 93.1307 247.158 93.408 246.049 93.408ZM270.204 132.576C267.431 132.576 264.999 131.915 262.908 130.592C260.86 129.269 259.26 127.413 258.108 125.024C256.999 122.592 256.444 119.733 256.444 116.448C256.444 113.12 256.999 110.261 258.108 107.872C259.26 105.44 260.86 103.584 262.908 102.304C264.999 100.981 267.431 100.32 270.204 100.32C273.02 100.32 275.431 101.024 277.436 102.432C279.441 103.84 280.785 105.739 281.468 108.128H280.764V89.056C280.764 88.2027 280.977 87.5627 281.404 87.136C281.873 86.6667 282.535 86.432 283.388 86.432C284.199 86.432 284.817 86.6667 285.244 87.136C285.713 87.5627 285.948 88.2027 285.948 89.056V129.76C285.948 130.613 285.735 131.275 285.308 131.744C284.881 132.213 284.241 132.448 283.388 132.448C282.577 132.448 281.937 132.213 281.468 131.744C281.041 131.275 280.828 130.613 280.828 129.76V123.68L281.532 124.576C280.849 127.008 279.484 128.949 277.436 130.4C275.431 131.851 273.02 132.576 270.204 132.576ZM271.292 128.416C273.212 128.416 274.897 127.947 276.348 127.008C277.799 126.069 278.908 124.704 279.676 122.912C280.487 121.12 280.892 118.965 280.892 116.448C280.892 112.565 280.017 109.6 278.268 107.552C276.561 105.504 274.236 104.48 271.292 104.48C269.329 104.48 267.623 104.949 266.172 105.888C264.764 106.784 263.655 108.128 262.844 109.92C262.076 111.669 261.692 113.845 261.692 116.448C261.692 120.288 262.567 123.253 264.316 125.344C266.065 127.392 268.391 128.416 271.292 128.416ZM302.589 143.968C301.949 143.968 301.437 143.797 301.053 143.456C300.669 143.115 300.434 142.645 300.349 142.048C300.306 141.493 300.413 140.917 300.669 140.32L305.085 130.4V132.64L292.797 104.096C292.541 103.456 292.455 102.859 292.541 102.304C292.626 101.749 292.882 101.301 293.309 100.96C293.735 100.619 294.333 100.448 295.101 100.448C295.783 100.448 296.317 100.597 296.701 100.896C297.085 101.195 297.426 101.728 297.725 102.496L308.221 128.224H306.493L317.117 102.496C317.458 101.728 317.821 101.195 318.205 100.896C318.589 100.597 319.143 100.448 319.869 100.448C320.551 100.448 321.063 100.619 321.405 100.96C321.789 101.301 322.002 101.749 322.045 102.304C322.13 102.816 322.045 103.392 321.789 104.032L305.405 141.92C305.063 142.688 304.679 143.221 304.253 143.52C303.869 143.819 303.314 143.968 302.589 143.968ZM337.719 132.576C335.585 132.576 333.665 132.171 331.959 131.36C330.295 130.507 328.972 129.355 327.991 127.904C327.009 126.453 326.519 124.832 326.519 123.04C326.519 120.736 327.095 118.923 328.247 117.6C329.441 116.277 331.383 115.339 334.071 114.784C336.801 114.229 340.513 113.952 345.207 113.952H348.087V117.344H345.271C341.815 117.344 339.084 117.515 337.079 117.856C335.116 118.155 333.729 118.688 332.919 119.456C332.151 120.224 331.767 121.312 331.767 122.72C331.767 124.469 332.364 125.899 333.559 127.008C334.796 128.117 336.46 128.672 338.551 128.672C340.257 128.672 341.751 128.267 343.031 127.456C344.353 126.645 345.377 125.536 346.103 124.128C346.871 122.72 347.255 121.099 347.255 119.264V111.968C347.255 109.323 346.721 107.424 345.655 106.272C344.588 105.077 342.839 104.48 340.407 104.48C338.913 104.48 337.42 104.672 335.927 105.056C334.433 105.44 332.855 106.059 331.191 106.912C330.593 107.211 330.081 107.317 329.655 107.232C329.228 107.104 328.887 106.869 328.631 106.528C328.375 106.187 328.225 105.803 328.183 105.376C328.14 104.907 328.225 104.459 328.439 104.032C328.695 103.605 329.079 103.264 329.591 103.008C331.468 102.069 333.324 101.387 335.159 100.96C336.993 100.533 338.743 100.32 340.407 100.32C343.095 100.32 345.313 100.768 347.063 101.664C348.812 102.517 350.113 103.84 350.967 105.632C351.82 107.381 352.247 109.643 352.247 112.416V129.76C352.247 130.613 352.033 131.275 351.607 131.744C351.223 132.213 350.647 132.448 349.879 132.448C349.068 132.448 348.449 132.213 348.023 131.744C347.596 131.275 347.383 130.613 347.383 129.76V124.768H347.959C347.617 126.389 346.956 127.776 345.975 128.928C345.036 130.08 343.863 130.976 342.455 131.616C341.047 132.256 339.468 132.576 337.719 132.576ZM383.176 132.576C378.355 132.576 374.28 131.659 370.952 129.824C367.667 127.989 365.171 125.344 363.464 121.888C361.757 118.432 360.904 114.293 360.904 109.472C360.904 105.888 361.373 102.667 362.312 99.808C363.293 96.9493 364.701 94.5387 366.536 92.576C368.413 90.5707 370.675 89.0347 373.32 87.968C376.008 86.8587 379.037 86.304 382.408 86.304C385.096 86.304 387.699 86.688 390.216 87.456C392.733 88.1813 394.973 89.3547 396.936 90.976C397.448 91.36 397.768 91.7867 397.896 92.256C398.024 92.7253 398.003 93.1947 397.832 93.664C397.704 94.1333 397.469 94.5387 397.128 94.88C396.829 95.1787 396.424 95.3493 395.912 95.392C395.443 95.4347 394.952 95.2853 394.44 94.944C392.691 93.5787 390.835 92.5973 388.872 92C386.909 91.36 384.733 91.04 382.344 91.04C378.931 91.04 376.029 91.7653 373.64 93.216C371.293 94.6667 369.501 96.7573 368.264 99.488C367.069 102.219 366.472 105.547 366.472 109.472C366.472 115.445 367.859 120.011 370.632 123.168C373.448 126.325 377.672 127.904 383.304 127.904C385.352 127.904 387.357 127.712 389.32 127.328C391.283 126.901 393.139 126.325 394.888 125.6L393.736 128.608V112.672H384.584C383.816 112.672 383.24 112.48 382.856 112.096C382.472 111.712 382.28 111.2 382.28 110.56C382.28 109.877 382.472 109.365 382.856 109.024C383.24 108.683 383.816 108.512 384.584 108.512H396.04C396.765 108.512 397.32 108.704 397.704 109.088C398.088 109.472 398.28 110.027 398.28 110.752V127.456C398.28 128.096 398.173 128.629 397.96 129.056C397.747 129.483 397.384 129.803 396.872 130.016C395.08 130.741 392.925 131.36 390.408 131.872C387.933 132.341 385.523 132.576 383.176 132.576ZM418.094 132.576C415.96 132.576 414.04 132.171 412.334 131.36C410.67 130.507 409.347 129.355 408.366 127.904C407.384 126.453 406.894 124.832 406.894 123.04C406.894 120.736 407.47 118.923 408.622 117.6C409.816 116.277 411.758 115.339 414.446 114.784C417.176 114.229 420.888 113.952 425.582 113.952H428.462V117.344H425.646C422.19 117.344 419.459 117.515 417.454 117.856C415.491 118.155 414.104 118.688 413.294 119.456C412.526 120.224 412.142 121.312 412.142 122.72C412.142 124.469 412.739 125.899 413.934 127.008C415.171 128.117 416.835 128.672 418.926 128.672C420.632 128.672 422.126 128.267 423.406 127.456C424.728 126.645 425.752 125.536 426.478 124.128C427.246 122.72 427.63 121.099 427.63 119.264V111.968C427.63 109.323 427.096 107.424 426.03 106.272C424.963 105.077 423.214 104.48 420.782 104.48C419.288 104.48 417.795 104.672 416.302 105.056C414.808 105.44 413.23 106.059 411.566 106.912C410.968 107.211 410.456 107.317 410.03 107.232C409.603 107.104 409.262 106.869 409.006 106.528C408.75 106.187 408.6 105.803 408.558 105.376C408.515 104.907 408.6 104.459 408.814 104.032C409.07 103.605 409.454 103.264 409.966 103.008C411.843 102.069 413.699 101.387 415.534 100.96C417.368 100.533 419.118 100.32 420.782 100.32C423.47 100.32 425.688 100.768 427.438 101.664C429.187 102.517 430.488 103.84 431.342 105.632C432.195 107.381 432.622 109.643 432.622 112.416V129.76C432.622 130.613 432.408 131.275 431.982 131.744C431.598 132.213 431.022 132.448 430.254 132.448C429.443 132.448 428.824 132.213 428.398 131.744C427.971 131.275 427.758 130.613 427.758 129.76V124.768H428.334C427.992 126.389 427.331 127.776 426.35 128.928C425.411 130.08 424.238 130.976 422.83 131.616C421.422 132.256 419.843 132.576 418.094 132.576ZM454.719 132.576C452.287 132.576 450.239 132.149 448.575 131.296C446.954 130.4 445.738 129.12 444.927 127.456C444.116 125.749 443.711 123.68 443.711 121.248V104.928H439.423C438.698 104.928 438.143 104.757 437.759 104.416C437.375 104.032 437.183 103.52 437.183 102.88C437.183 102.24 437.375 101.749 437.759 101.408C438.143 101.067 438.698 100.896 439.423 100.896H443.711V93.536C443.711 92.6827 443.946 92.0427 444.415 91.616C444.884 91.1467 445.524 90.912 446.335 90.912C447.146 90.912 447.764 91.1467 448.191 91.616C448.66 92.0427 448.895 92.6827 448.895 93.536V100.896H456.959C457.684 100.896 458.239 101.067 458.623 101.408C459.007 101.749 459.199 102.24 459.199 102.88C459.199 103.52 459.007 104.032 458.623 104.416C458.239 104.757 457.684 104.928 456.959 104.928H448.895V120.736C448.895 123.168 449.407 125.024 450.431 126.304C451.455 127.541 453.119 128.16 455.423 128.16C456.234 128.16 456.916 128.075 457.471 127.904C458.068 127.733 458.559 127.648 458.943 127.648C459.327 127.605 459.647 127.733 459.903 128.032C460.159 128.331 460.287 128.843 460.287 129.568C460.287 130.08 460.18 130.549 459.967 130.976C459.796 131.403 459.476 131.701 459.007 131.872C458.495 132.043 457.812 132.192 456.959 132.32C456.148 132.491 455.402 132.576 454.719 132.576ZM467.549 132.32C466.696 132.32 466.056 132.085 465.629 131.616C465.202 131.104 464.989 130.4 464.989 129.504V103.328C464.989 102.432 465.202 101.749 465.629 101.28C466.056 100.811 466.696 100.576 467.549 100.576C468.36 100.576 469 100.811 469.469 101.28C469.938 101.749 470.173 102.432 470.173 103.328V129.504C470.173 130.4 469.938 131.104 469.469 131.616C469.042 132.085 468.402 132.32 467.549 132.32ZM467.549 93.408C466.482 93.408 465.65 93.1307 465.053 92.576C464.456 91.9787 464.157 91.1893 464.157 90.208C464.157 89.184 464.456 88.416 465.053 87.904C465.65 87.3493 466.482 87.072 467.549 87.072C468.658 87.072 469.49 87.3493 470.045 87.904C470.642 88.416 470.941 89.184 470.941 90.208C470.941 91.1893 470.642 91.9787 470.045 92.576C469.49 93.1307 468.658 93.408 467.549 93.408Z" fill="black"/>
</svg>
